 <svg width="14" height="14" viewBox="0 0 14 14" fill="none" xmlns="http://www.w3.org/2000/svg">
  <path
    fill-rule="evenodd"
    clip-rule="evenodd"
    d="M0.46967 0.46967C0.176777 0.762563 0.176777 1.23744 0.46967 1.53033L6.01041 7.07107L0.46967 12.6118C0.176777 12.9047 0.176777 13.3796 0.46967 13.6725C0.762564 13.9654 1.23744 13.9654 1.53033 13.6725L7.07107 8.13173L12.6118 13.6725C12.9047 13.9654 13.3796 13.9654 13.6725 13.6725C13.9654 13.3796 13.9654 12.9047 13.6725 12.6118L8.13173 7.07107L13.6725 1.53033C13.9654 1.23744 13.9654 0.762563 13.6725 0.46967C13.3796 0.176777 12.9047 0.176777 12.6118 0.46967L7.07107 6.01041L1.53033 0.46967C1.23744 0.176777 0.762563 0.176777 0.46967 0.46967Z"
    fill="#E58900"
  />
</svg>